<mxfile host="app.diagrams.net" modified="2021-11-22T20:59:05.592Z" agent="5.0 (Windows NT 10.0; Win64; x64) AppleWebKit/537.36 (KHTML, like Gecko) Chrome/96.0.4664.45 Safari/537.36" etag="reUX-CP49zPOylrA4vu3" version="15.3.5" type="github">
  <diagram id="9qEGbad7l97ktrlNfDMw" name="Page-1">
    <mxGraphModel dx="1422" dy="781" grid="1" gridSize="10" guides="1" tooltips="1" connect="1" arrows="1" fold="1" page="1" pageScale="1" pageWidth="850" pageHeight="1100" math="0" shadow="0">
      <root>
        <mxCell id="0" />
        <mxCell id="1" parent="0" />
        <mxCell id="Llf1M_T53LXTJHKO9B76-27" value="" style="rounded=0;whiteSpace=wrap;html=1;shadow=0;glass=0;sketch=1;hachureGap=4;sketchStyle=rough;pointerEvents=0;fillColor=#dae8fc;strokeColor=#6c8ebf;" vertex="1" parent="1">
          <mxGeometry x="603" y="520" width="210" height="90" as="geometry" />
        </mxCell>
        <mxCell id="Llf1M_T53LXTJHKO9B76-30" style="edgeStyle=none;curved=1;rounded=0;orthogonalLoop=1;jettySize=auto;html=1;entryX=0.48;entryY=-0.033;entryDx=0;entryDy=0;entryPerimeter=0;endArrow=open;startSize=14;endSize=14;sourcePerimeterSpacing=8;targetPerimeterSpacing=8;" edge="1" parent="1" source="Llf1M_T53LXTJHKO9B76-22" target="Llf1M_T53LXTJHKO9B76-27">
          <mxGeometry relative="1" as="geometry" />
        </mxCell>
        <mxCell id="Llf1M_T53LXTJHKO9B76-22" value="" style="rounded=0;whiteSpace=wrap;html=1;shadow=0;glass=0;sketch=1;hachureGap=4;sketchStyle=rough;pointerEvents=0;fillColor=#fff2cc;strokeColor=#d6b656;" vertex="1" parent="1">
          <mxGeometry x="563" y="315" width="210" height="90" as="geometry" />
        </mxCell>
        <mxCell id="Llf1M_T53LXTJHKO9B76-57" style="edgeStyle=none;curved=1;rounded=0;orthogonalLoop=1;jettySize=auto;html=1;entryX=0.001;entryY=0.42;entryDx=0;entryDy=0;entryPerimeter=0;endArrow=open;startSize=14;endSize=14;sourcePerimeterSpacing=8;targetPerimeterSpacing=8;" edge="1" parent="1" source="Llf1M_T53LXTJHKO9B76-4" target="Llf1M_T53LXTJHKO9B76-22">
          <mxGeometry relative="1" as="geometry" />
        </mxCell>
        <mxCell id="Llf1M_T53LXTJHKO9B76-4" value="" style="rounded=0;whiteSpace=wrap;html=1;shadow=0;glass=0;sketch=1;hachureGap=4;sketchStyle=rough;pointerEvents=0;fillColor=#d5e8d4;strokeColor=#82b366;" vertex="1" parent="1">
          <mxGeometry x="148" y="170" width="340" height="210" as="geometry" />
        </mxCell>
        <mxCell id="Llf1M_T53LXTJHKO9B76-2" value="Vehicle repository" style="rounded=1;whiteSpace=wrap;html=1;hachureGap=4;pointerEvents=0;sketch=1;glass=0;shadow=0;fixDash=0;sketchStyle=rough;" vertex="1" parent="1">
          <mxGeometry x="178" y="240" width="120" height="60" as="geometry" />
        </mxCell>
        <mxCell id="Llf1M_T53LXTJHKO9B76-3" value="Order repository" style="rounded=1;whiteSpace=wrap;html=1;hachureGap=4;pointerEvents=0;sketch=1;glass=0;shadow=0;fixDash=0;sketchStyle=rough;" vertex="1" parent="1">
          <mxGeometry x="328" y="240" width="120" height="60" as="geometry" />
        </mxCell>
        <mxCell id="Llf1M_T53LXTJHKO9B76-5" value="Repository" style="text;html=1;align=center;verticalAlign=middle;resizable=0;points=[];autosize=1;strokeColor=#82b366;fillColor=#d5e8d4;sketch=1;" vertex="1" parent="1">
          <mxGeometry x="148" y="150" width="70" height="20" as="geometry" />
        </mxCell>
        <mxCell id="Llf1M_T53LXTJHKO9B76-6" value="" style="rounded=0;whiteSpace=wrap;html=1;shadow=0;glass=0;sketch=1;hachureGap=4;sketchStyle=rough;pointerEvents=0;fillColor=#f8cecc;strokeColor=#b85450;" vertex="1" parent="1">
          <mxGeometry x="38" y="460" width="430" height="240" as="geometry" />
        </mxCell>
        <mxCell id="Llf1M_T53LXTJHKO9B76-7" value="Page" style="text;html=1;align=center;verticalAlign=middle;resizable=0;points=[];autosize=1;strokeColor=#b85450;fillColor=#f8cecc;sketch=1;" vertex="1" parent="1">
          <mxGeometry x="38" y="440" width="40" height="20" as="geometry" />
        </mxCell>
        <mxCell id="Llf1M_T53LXTJHKO9B76-8" value="Vehicle page" style="rounded=1;whiteSpace=wrap;html=1;hachureGap=4;pointerEvents=0;sketch=1;glass=0;shadow=0;fixDash=0;sketchStyle=rough;" vertex="1" parent="1">
          <mxGeometry x="68" y="530" width="120" height="60" as="geometry" />
        </mxCell>
        <mxCell id="Llf1M_T53LXTJHKO9B76-9" value="Order page" style="rounded=1;whiteSpace=wrap;html=1;hachureGap=4;pointerEvents=0;sketch=1;glass=0;shadow=0;fixDash=0;sketchStyle=rough;" vertex="1" parent="1">
          <mxGeometry x="303" y="530" width="120" height="60" as="geometry" />
        </mxCell>
        <mxCell id="Llf1M_T53LXTJHKO9B76-12" style="edgeStyle=none;curved=1;rounded=0;orthogonalLoop=1;jettySize=auto;html=1;endArrow=open;startSize=14;endSize=14;sourcePerimeterSpacing=8;targetPerimeterSpacing=8;exitX=0.5;exitY=0;exitDx=0;exitDy=0;entryX=0.699;entryY=1.053;entryDx=0;entryDy=0;entryPerimeter=0;" edge="1" parent="1" source="Llf1M_T53LXTJHKO9B76-11" target="Llf1M_T53LXTJHKO9B76-9">
          <mxGeometry relative="1" as="geometry" />
        </mxCell>
        <mxCell id="Llf1M_T53LXTJHKO9B76-11" value="State" style="rounded=1;whiteSpace=wrap;html=1;hachureGap=4;pointerEvents=0;sketch=1;glass=0;shadow=0;fixDash=0;sketchStyle=rough;" vertex="1" parent="1">
          <mxGeometry x="363" y="640" width="50" height="20" as="geometry" />
        </mxCell>
        <mxCell id="Llf1M_T53LXTJHKO9B76-14" style="edgeStyle=none;curved=1;rounded=0;orthogonalLoop=1;jettySize=auto;html=1;entryX=0.75;entryY=1;entryDx=0;entryDy=0;endArrow=open;startSize=14;endSize=14;sourcePerimeterSpacing=8;targetPerimeterSpacing=8;" edge="1" parent="1" source="Llf1M_T53LXTJHKO9B76-13" target="Llf1M_T53LXTJHKO9B76-8">
          <mxGeometry relative="1" as="geometry" />
        </mxCell>
        <mxCell id="Llf1M_T53LXTJHKO9B76-13" value="State" style="rounded=1;whiteSpace=wrap;html=1;hachureGap=4;pointerEvents=0;sketch=1;glass=0;shadow=0;fixDash=0;sketchStyle=rough;" vertex="1" parent="1">
          <mxGeometry x="138" y="640" width="50" height="20" as="geometry" />
        </mxCell>
        <mxCell id="Llf1M_T53LXTJHKO9B76-19" style="edgeStyle=none;curved=1;rounded=0;orthogonalLoop=1;jettySize=auto;html=1;entryX=1;entryY=0.5;entryDx=0;entryDy=0;endArrow=open;startSize=14;endSize=14;sourcePerimeterSpacing=8;targetPerimeterSpacing=8;exitX=-0.008;exitY=0.635;exitDx=0;exitDy=0;exitPerimeter=0;" edge="1" parent="1" source="Llf1M_T53LXTJHKO9B76-27" target="Llf1M_T53LXTJHKO9B76-11">
          <mxGeometry relative="1" as="geometry">
            <Array as="points">
              <mxPoint x="538" y="620" />
            </Array>
          </mxGeometry>
        </mxCell>
        <mxCell id="Llf1M_T53LXTJHKO9B76-20" style="edgeStyle=none;curved=1;rounded=0;orthogonalLoop=1;jettySize=auto;html=1;entryX=1;entryY=0.5;entryDx=0;entryDy=0;endArrow=open;startSize=14;endSize=14;sourcePerimeterSpacing=8;targetPerimeterSpacing=8;exitX=0;exitY=0.25;exitDx=0;exitDy=0;" edge="1" parent="1" source="Llf1M_T53LXTJHKO9B76-27" target="Llf1M_T53LXTJHKO9B76-13">
          <mxGeometry relative="1" as="geometry">
            <Array as="points">
              <mxPoint x="418" y="660" />
            </Array>
          </mxGeometry>
        </mxCell>
        <mxCell id="Llf1M_T53LXTJHKO9B76-15" value="State" style="rounded=1;whiteSpace=wrap;html=1;hachureGap=4;pointerEvents=0;sketch=1;glass=0;shadow=0;fixDash=0;sketchStyle=rough;" vertex="1" parent="1">
          <mxGeometry x="663" y="545" width="90" height="40" as="geometry" />
        </mxCell>
        <mxCell id="Llf1M_T53LXTJHKO9B76-21" value="Mixin" style="rounded=1;whiteSpace=wrap;html=1;hachureGap=4;pointerEvents=0;sketch=1;glass=0;shadow=0;fixDash=0;sketchStyle=rough;" vertex="1" parent="1">
          <mxGeometry x="623" y="340" width="90" height="40" as="geometry" />
        </mxCell>
        <mxCell id="Llf1M_T53LXTJHKO9B76-23" value="Index" style="text;html=1;align=center;verticalAlign=middle;resizable=0;points=[];autosize=1;strokeColor=#d6b656;fillColor=#fff2cc;sketch=1;" vertex="1" parent="1">
          <mxGeometry x="563" y="295" width="40" height="20" as="geometry" />
        </mxCell>
        <mxCell id="Llf1M_T53LXTJHKO9B76-28" value="Global" style="text;html=1;align=center;verticalAlign=middle;resizable=0;points=[];autosize=1;strokeColor=#6c8ebf;fillColor=#dae8fc;sketch=1;" vertex="1" parent="1">
          <mxGeometry x="603" y="500" width="50" height="20" as="geometry" />
        </mxCell>
        <mxCell id="Llf1M_T53LXTJHKO9B76-34" value="" style="rounded=0;whiteSpace=wrap;html=1;shadow=0;glass=0;sketch=1;hachureGap=4;sketchStyle=rough;pointerEvents=0;fillColor=#fff2cc;strokeColor=#d6b656;" vertex="1" parent="1">
          <mxGeometry x="575" y="1075" width="165" height="90" as="geometry" />
        </mxCell>
        <mxCell id="Llf1M_T53LXTJHKO9B76-58" style="edgeStyle=none;curved=1;rounded=0;orthogonalLoop=1;jettySize=auto;html=1;entryX=-0.001;entryY=0.568;entryDx=0;entryDy=0;entryPerimeter=0;endArrow=open;startSize=14;endSize=14;sourcePerimeterSpacing=8;targetPerimeterSpacing=8;" edge="1" parent="1" source="Llf1M_T53LXTJHKO9B76-35" target="Llf1M_T53LXTJHKO9B76-34">
          <mxGeometry relative="1" as="geometry" />
        </mxCell>
        <mxCell id="Llf1M_T53LXTJHKO9B76-76" value="Sent Data" style="edgeLabel;html=1;align=center;verticalAlign=middle;resizable=0;points=[];labelBackgroundColor=none;" vertex="1" connectable="0" parent="Llf1M_T53LXTJHKO9B76-58">
          <mxGeometry x="0.1588" y="1" relative="1" as="geometry">
            <mxPoint x="-7" y="-15" as="offset" />
          </mxGeometry>
        </mxCell>
        <mxCell id="Llf1M_T53LXTJHKO9B76-35" value="" style="rounded=0;whiteSpace=wrap;html=1;shadow=0;glass=0;sketch=1;hachureGap=4;sketchStyle=rough;pointerEvents=0;fillColor=#d5e8d4;strokeColor=#82b366;" vertex="1" parent="1">
          <mxGeometry x="160" y="930" width="340" height="210" as="geometry" />
        </mxCell>
        <mxCell id="Llf1M_T53LXTJHKO9B76-36" value="Vehicle repository" style="rounded=1;whiteSpace=wrap;html=1;hachureGap=4;pointerEvents=0;sketch=1;glass=0;shadow=0;fixDash=0;sketchStyle=rough;" vertex="1" parent="1">
          <mxGeometry x="190" y="1000" width="120" height="60" as="geometry" />
        </mxCell>
        <mxCell id="Llf1M_T53LXTJHKO9B76-37" value="Order repository" style="rounded=1;whiteSpace=wrap;html=1;hachureGap=4;pointerEvents=0;sketch=1;glass=0;shadow=0;fixDash=0;sketchStyle=rough;" vertex="1" parent="1">
          <mxGeometry x="340" y="1000" width="120" height="60" as="geometry" />
        </mxCell>
        <mxCell id="Llf1M_T53LXTJHKO9B76-38" value="Repository" style="text;html=1;align=center;verticalAlign=middle;resizable=0;points=[];autosize=1;strokeColor=#82b366;fillColor=#d5e8d4;sketch=1;" vertex="1" parent="1">
          <mxGeometry x="160" y="910" width="70" height="20" as="geometry" />
        </mxCell>
        <mxCell id="Llf1M_T53LXTJHKO9B76-39" value="" style="rounded=0;whiteSpace=wrap;html=1;shadow=0;glass=0;sketch=1;hachureGap=4;sketchStyle=rough;pointerEvents=0;fillColor=#f8cecc;strokeColor=#b85450;" vertex="1" parent="1">
          <mxGeometry x="50" y="1220" width="430" height="240" as="geometry" />
        </mxCell>
        <mxCell id="Llf1M_T53LXTJHKO9B76-40" value="Page" style="text;html=1;align=center;verticalAlign=middle;resizable=0;points=[];autosize=1;strokeColor=#b85450;fillColor=#f8cecc;sketch=1;" vertex="1" parent="1">
          <mxGeometry x="50" y="1200" width="40" height="20" as="geometry" />
        </mxCell>
        <mxCell id="Llf1M_T53LXTJHKO9B76-84" style="edgeStyle=none;curved=1;rounded=0;orthogonalLoop=1;jettySize=auto;html=1;entryX=0;entryY=0.5;entryDx=0;entryDy=0;endArrow=open;startSize=14;endSize=14;sourcePerimeterSpacing=8;targetPerimeterSpacing=8;" edge="1" parent="1" source="Llf1M_T53LXTJHKO9B76-41" target="Llf1M_T53LXTJHKO9B76-46">
          <mxGeometry relative="1" as="geometry">
            <Array as="points">
              <mxPoint x="90" y="1390" />
            </Array>
          </mxGeometry>
        </mxCell>
        <mxCell id="Llf1M_T53LXTJHKO9B76-41" value="Vehicle page" style="rounded=1;whiteSpace=wrap;html=1;hachureGap=4;pointerEvents=0;sketch=1;glass=0;shadow=0;fixDash=0;sketchStyle=rough;" vertex="1" parent="1">
          <mxGeometry x="80" y="1290" width="120" height="60" as="geometry" />
        </mxCell>
        <mxCell id="Llf1M_T53LXTJHKO9B76-82" style="edgeStyle=none;curved=1;rounded=0;orthogonalLoop=1;jettySize=auto;html=1;entryX=0;entryY=0.5;entryDx=0;entryDy=0;endArrow=open;startSize=14;endSize=14;sourcePerimeterSpacing=8;targetPerimeterSpacing=8;" edge="1" parent="1" source="Llf1M_T53LXTJHKO9B76-42" target="Llf1M_T53LXTJHKO9B76-44">
          <mxGeometry relative="1" as="geometry">
            <Array as="points">
              <mxPoint x="300" y="1390" />
            </Array>
          </mxGeometry>
        </mxCell>
        <mxCell id="Llf1M_T53LXTJHKO9B76-83" value="Update State with Props" style="edgeLabel;html=1;align=center;verticalAlign=middle;resizable=0;points=[];" vertex="1" connectable="0" parent="Llf1M_T53LXTJHKO9B76-82">
          <mxGeometry x="0.2197" y="9" relative="1" as="geometry">
            <mxPoint as="offset" />
          </mxGeometry>
        </mxCell>
        <mxCell id="Llf1M_T53LXTJHKO9B76-42" value="Order page" style="rounded=1;whiteSpace=wrap;html=1;hachureGap=4;pointerEvents=0;sketch=1;glass=0;shadow=0;fixDash=0;sketchStyle=rough;" vertex="1" parent="1">
          <mxGeometry x="315" y="1290" width="120" height="60" as="geometry" />
        </mxCell>
        <mxCell id="Llf1M_T53LXTJHKO9B76-44" value="State" style="rounded=1;whiteSpace=wrap;html=1;hachureGap=4;pointerEvents=0;sketch=1;glass=0;shadow=0;fixDash=0;sketchStyle=rough;" vertex="1" parent="1">
          <mxGeometry x="375" y="1400" width="50" height="20" as="geometry" />
        </mxCell>
        <mxCell id="Llf1M_T53LXTJHKO9B76-46" value="State" style="rounded=1;whiteSpace=wrap;html=1;hachureGap=4;pointerEvents=0;sketch=1;glass=0;shadow=0;fixDash=0;sketchStyle=rough;" vertex="1" parent="1">
          <mxGeometry x="150" y="1400" width="50" height="20" as="geometry" />
        </mxCell>
        <mxCell id="Llf1M_T53LXTJHKO9B76-77" style="edgeStyle=none;curved=1;rounded=0;orthogonalLoop=1;jettySize=auto;html=1;exitX=0.177;exitY=1.028;exitDx=0;exitDy=0;entryX=1;entryY=0.5;entryDx=0;entryDy=0;endArrow=open;startSize=14;endSize=14;sourcePerimeterSpacing=8;targetPerimeterSpacing=8;exitPerimeter=0;" edge="1" parent="1" source="Llf1M_T53LXTJHKO9B76-34" target="Llf1M_T53LXTJHKO9B76-44">
          <mxGeometry relative="1" as="geometry">
            <Array as="points">
              <mxPoint x="560" y="1320" />
            </Array>
          </mxGeometry>
        </mxCell>
        <mxCell id="Llf1M_T53LXTJHKO9B76-78" value="Call" style="edgeLabel;html=1;align=center;verticalAlign=middle;resizable=0;points=[];" vertex="1" connectable="0" parent="Llf1M_T53LXTJHKO9B76-77">
          <mxGeometry x="-0.1731" y="-3" relative="1" as="geometry">
            <mxPoint x="3" y="-23" as="offset" />
          </mxGeometry>
        </mxCell>
        <mxCell id="Llf1M_T53LXTJHKO9B76-79" style="edgeStyle=none;curved=1;rounded=0;orthogonalLoop=1;jettySize=auto;html=1;entryX=1;entryY=0;entryDx=0;entryDy=0;endArrow=open;startSize=14;endSize=14;sourcePerimeterSpacing=8;targetPerimeterSpacing=8;" edge="1" parent="1" target="Llf1M_T53LXTJHKO9B76-46">
          <mxGeometry relative="1" as="geometry">
            <mxPoint x="570" y="1150" as="sourcePoint" />
            <Array as="points">
              <mxPoint x="330" y="1230" />
            </Array>
          </mxGeometry>
        </mxCell>
        <mxCell id="Llf1M_T53LXTJHKO9B76-80" value="Call" style="edgeLabel;html=1;align=center;verticalAlign=middle;resizable=0;points=[];" vertex="1" connectable="0" parent="Llf1M_T53LXTJHKO9B76-79">
          <mxGeometry x="-0.19" y="14" relative="1" as="geometry">
            <mxPoint as="offset" />
          </mxGeometry>
        </mxCell>
        <mxCell id="Llf1M_T53LXTJHKO9B76-50" value="Mixin" style="rounded=1;whiteSpace=wrap;html=1;hachureGap=4;pointerEvents=0;sketch=1;glass=0;shadow=0;fixDash=0;sketchStyle=rough;" vertex="1" parent="1">
          <mxGeometry x="603" y="1100" width="90" height="40" as="geometry" />
        </mxCell>
        <mxCell id="Llf1M_T53LXTJHKO9B76-51" value="Index" style="text;html=1;align=center;verticalAlign=middle;resizable=0;points=[];autosize=1;strokeColor=#d6b656;fillColor=#fff2cc;sketch=1;" vertex="1" parent="1">
          <mxGeometry x="575" y="1055" width="40" height="20" as="geometry" />
        </mxCell>
        <mxCell id="Llf1M_T53LXTJHKO9B76-53" value="MODELO 2:" style="text;html=1;align=center;verticalAlign=middle;resizable=0;points=[];autosize=1;strokeColor=none;fillColor=none;" vertex="1" parent="1">
          <mxGeometry x="385" y="830" width="80" height="20" as="geometry" />
        </mxCell>
        <mxCell id="Llf1M_T53LXTJHKO9B76-54" value="MODELO 1:" style="text;html=1;align=center;verticalAlign=middle;resizable=0;points=[];autosize=1;strokeColor=none;fillColor=none;" vertex="1" parent="1">
          <mxGeometry x="380" y="40" width="80" height="20" as="geometry" />
        </mxCell>
        <mxCell id="Llf1M_T53LXTJHKO9B76-72" style="edgeStyle=none;curved=1;rounded=0;orthogonalLoop=1;jettySize=auto;html=1;exitX=0.573;exitY=0.997;exitDx=0;exitDy=0;endArrow=open;startSize=14;endSize=14;sourcePerimeterSpacing=8;targetPerimeterSpacing=8;exitPerimeter=0;" edge="1" parent="1" source="Llf1M_T53LXTJHKO9B76-34">
          <mxGeometry relative="1" as="geometry">
            <mxPoint x="775" y="1140" as="sourcePoint" />
            <mxPoint x="483" y="1316" as="targetPoint" />
            <Array as="points">
              <mxPoint x="680" y="1310" />
            </Array>
          </mxGeometry>
        </mxCell>
        <mxCell id="Llf1M_T53LXTJHKO9B76-81" value="Sent Data Props" style="edgeLabel;html=1;align=center;verticalAlign=middle;resizable=0;points=[];" vertex="1" connectable="0" parent="Llf1M_T53LXTJHKO9B76-72">
          <mxGeometry x="-0.5765" y="-17" relative="1" as="geometry">
            <mxPoint as="offset" />
          </mxGeometry>
        </mxCell>
        <mxCell id="Llf1M_T53LXTJHKO9B76-85" value="Update State with Props" style="edgeLabel;html=1;align=center;verticalAlign=middle;resizable=0;points=[];" vertex="1" connectable="0" parent="1">
          <mxGeometry x="110.00415482329475" y="1379.9966031351228" as="geometry" />
        </mxCell>
      </root>
    </mxGraphModel>
  </diagram>
</mxfile>
